# xmcd
#
# Track frame offsets:
# 150
# 18180
# 31025
# 46072
# 58272
# 70350
# 84245
# 99882
# 110590
# 128420
# 143662
# 155317
# 172470
# 188887
#
# Disc length: 2652 seconds
#
#
# Revision: 0
# Processed by: cddbd v1.5.2PL0 Copyright (c) Steve Scherf et al.
# Submitted via: FreeRIP 2.951 
#
DISCID=ae0a5a0e
DTITLE=Schytts  - Jubileums Dans
DYEAR=1900
DGENRE=Dansband
TTITLE0=Schytts - Ner mot havet
TTITLE1=Schytts - Barn i vår värld
TTITLE2=Schytts - Bullfest
TTITLE3=Schytts - Det gör det samma
TTITLE4=Schytts - Aj, aj, aj
TTITLE5=Schytts - En kyss eller två
TTITLE6=Schytts - En spännande dag för Josefine
TTITLE7=Schytts - Vad har du under blusen Ruth
TTITLE8=Schytts - Kommer du ihåg Babylon
TTITLE9=Schytts - Sol öar vind och hav
TTITLE10=Schytts - Det sa bom
TTITLE11=Schytts - Du är som en sommardag
TTITLE12=Schytts - Hallå du gamle Indian
TTITLE13=Schytts - Lika blå som dina ögon
EXTD=
EXTT0=
EXTT1=
EXTT2=
EXTT3=
EXTT4=
EXTT5=
EXTT6=
EXTT7=
EXTT8=
EXTT9=
EXTT10=
EXTT11=
EXTT12=
EXTT13=
PLAYORDER=
